<svg width="114" height="114" viewBox="0 0 114 114" fill="none" xmlns="http://www.w3.org/2000/svg">
<rect width="114" height="114" fill="white"/>
<path d="M19.268 88.232C16.964 88.232 15.076 87.528 13.604 86.12C12.132 84.712 11.396 82.92 11.396 80.744C11.396 78.568 12.132 76.744 13.604 75.272C15.076 73.8 16.964 73.064 19.268 73.064C21.572 73.064 23.492 73.8 25.028 75.272C26.564 76.744 27.332 78.568 27.332 80.744C27.332 82.92 26.564 84.712 25.028 86.12C23.492 87.528 21.572 88.232 19.268 88.232ZM19.268 59.72C16.964 59.72 15.076 59.016 13.604 57.608C12.132 56.2 11.396 54.408 11.396 52.232C11.396 50.056 12.132 48.232 13.604 46.76C15.076 45.288 16.964 44.552 19.268 44.552C21.572 44.552 23.492 45.288 25.028 46.76C26.564 48.232 27.332 50.056 27.332 52.232C27.332 54.408 26.564 56.2 25.028 57.608C23.492 59.016 21.572 59.72 19.268 59.72ZM36.791 55.112H63.767V65H36.791V55.112ZM79.5155 16.616C92.8915 28.52 99.5795 42.472 99.5795 58.472C99.5795 74.344 92.8915 88.296 79.5155 100.328L71.2595 94.184C76.8275 88.424 80.9875 82.696 83.7395 77C86.4915 71.24 87.8675 65.064 87.8675 58.472C87.8675 51.88 86.4595 45.704 83.6435 39.944C80.8915 34.12 76.7635 28.328 71.2595 22.568L79.5155 16.616Z" fill="#000069"/>
</svg>
